<svg xmlns="http://www.w3.org/2000/svg" viewBox="0 0 100 100">
  <defs>
    <linearGradient id="gradient" x1="0%" y1="0%" x2="100%" y2="100%">
      <stop offset="0%" style="stop-color:#FF2D55"/>
      <stop offset="100%" style="stop-color:#FF6B8A"/>
    </linearGradient>
  </defs>
  <rect width="100" height="100" rx="22" fill="url(#gradient)"/>
  <path d="M50 22C35.088 22 23 34.088 23 49s12.088 27 27 27 27-12.088 27-27-12.088-27-27-27zm0 48c-11.598 0-21-9.402-21-21s9.402-21 21-21 21 9.402 21 21-9.402 21-21 21z" fill="white" opacity="0.9"/>
  <path d="M50 34c-8.284 0-15 6.716-15 15 0 8.284 6.716 15 15 15 8.284 0 15-6.716 15-15 0-8.284-6.716-15-15-15zm6 16.5h-4.5V55c0 .828-.672 1.5-1.5 1.5s-1.5-.672-1.5-1.5v-4.5H44c-.828 0-1.5-.672-1.5-1.5s.672-1.5 1.5-1.5h4.5V43c0-.828.672-1.5 1.5-1.5s1.5.672 1.5 1.5v4.5H56c.828 0 1.5.672 1.5 1.5s-.672 1.5-1.5 1.5z" fill="white"/>
</svg>
